<?xml version="1.0" encoding="UTF-8"?>
<svg version="1.1" xmlns="http://www.w3.org/2000/svg" width="221" height="343">
<path d="M0 0 C0.66 0 1.32 0 2 0 C2.02578125 1.26972656 2.0515625 2.53945312 2.078125 3.84765625 C2.79911816 28.87711701 11.81906882 47.05098297 25.88769531 67.38769531 C34.90983185 80.46543668 43.33637637 94.41441882 47 110 C47.22300781 110.88945312 47.44601563 111.77890625 47.67578125 112.6953125 C53.69886348 141.45860317 45.55158544 169.71035297 29.87109375 193.86328125 C25.71914979 199.99409642 20.95521984 205.51330548 16 211 C14.87401299 212.33249992 13.74888791 213.66572913 12.625 215 C4.7638706 223.89796901 -3.95843926 233.58348146 -14 240 C-14.99 240 -15.98 240 -17 240 C-16.03187609 235.07136919 -14.82187063 230.37428741 -13.22192383 225.609375 C-6.20631594 204.49761606 -3.93724636 183.21272206 -14.16699219 162.65478516 C-18.05649555 155.20308381 -22.26487218 147.93141213 -26.5390625 140.6953125 C-39.5661673 118.45625992 -42.90633302 93.77494285 -36.390625 68.5859375 C-31.12176719 50.39658212 -22.42472003 33.72575913 -12 18 C-10.98780922 16.44041042 -9.97613562 14.88048512 -8.96484375 13.3203125 C-7.87311056 11.65057413 -6.78065913 9.98130517 -5.6875 8.3125 C-5.15930664 7.49676514 -4.63111328 6.68103027 -4.08691406 5.84057617 C-3.58772461 5.08494385 -3.08853516 4.32931152 -2.57421875 3.55078125 C-2.12651123 2.86669189 -1.67880371 2.18260254 -1.2175293 1.4777832 C-0.81574463 0.99011475 -0.41395996 0.50244629 0 0 Z " fill="#3CA1A0" transform="translate(86,90)"/>
<path d="M0 0 C1.17626765 3.72288966 0.52902247 5.93706024 -0.69140625 9.63305664 C-9.25793029 36.09229106 -3.42727905 64.35329464 5 90 C5.3403125 91.04929687 5.680625 92.09859375 6.03125 93.1796875 C8.1444276 99.31883278 10.85549999 105.14243164 13.71459961 110.96411133 C15.10840527 113.84337535 16 115.75609399 16 119 C16.66 119 17.32 119 18 119 C18.2475 119.78375 18.495 120.5675 18.75 121.375 C19.41497201 123.30341884 20.100176 125.22891282 20.91796875 127.09765625 C28.05933691 143.48723299 29.00835261 160.88991985 24 178 C22.89008302 180.82165561 21.48957117 183.36460485 20 186 C18.51217009 189.05185595 17.03744241 192.10986805 15.5625 195.16796875 C13.96295762 198.06713932 12.07671926 200.43064386 10 203 C8.99515117 205.33124929 7.99477753 207.66443537 7 210 C5.4375 211.9375 5.4375 211.9375 4 213 C3.34 213 2.68 213 2 213 C2 213.66 2 214.32 2 215 C1.34 215 0.68 215 0 215 C-0.33 215.66 -0.66 216.32 -1 217 C-1.33 216.67 -1.66 216.34 -2 216 C-1.47275238 210.46028868 -0.05776 205.28275589 1.4375 199.9375 C8.99486972 171.77775303 4.72817311 152.30529475 -9.59667969 127.41308594 C-10.90200635 125.16850544 -12.21851776 122.93096244 -13.5390625 120.6953125 C-26.5661673 98.45625992 -29.90633302 73.77494285 -23.390625 48.5859375 C-18.38894782 31.31895343 -10.46329956 14.62483916 0 0 Z " fill="#70D6B9" transform="translate(73,110)"/>
<path d="M0 0 C4.68039834 3.084808 8.38856563 6.24299577 9.75 11.8125 C10.56625313 18.18809877 10.06239032 22.86133752 6.2109375 28.1171875 C3.0141948 31.82677662 0.64659262 33.58026417 -4.3125 34.1875 C-9.39357286 34.37226629 -13.17774193 34.32041172 -17.8125 32.125 C-22.94278646 27.25780516 -25.3733281 23.69129375 -25.5625 16.5625 C-25.49672868 11.03040095 -24.64169608 8.18600284 -21.25 3.8125 C-14.64401679 -1.31050739 -7.94621171 -2.90342351 0 0 Z " fill="#25586B" transform="translate(137.25,119.1875)"/>
<path d="M0 0 C4.22165591 3.41659595 6.56366929 7.62540911 7.56640625 12.94921875 C7.89321895 18.31527247 6.15638577 22.52826371 3.1875 26.9375 C-0.30689362 30.84299875 -4.14369181 31.97906414 -9.1875 32.8046875 C-14.39270372 33.06804602 -18.55493124 31.7309861 -22.63671875 28.48828125 C-26.66984422 24.29890879 -28.65634764 19.76393476 -28.8125 13.9375 C-28.12644151 8.7491827 -26.3687346 5.04204146 -22.5 1.5 C-15.56418012 -3.71272476 -7.52268546 -4.77835815 0 0 Z " fill="#24576A" transform="translate(161.8125,157.0625)"/>
<path d="M0 0 C4.45146251 2.18526342 7.18885145 4.9394521 10 9 C11.53377179 13.60131537 11.90474832 18.34779492 10.31640625 23.00390625 C8.0456358 27.36642375 5.36934851 29.85654601 1 32 C-5.07952345 33.60863303 -9.45038022 33.20170372 -15 30 C-18.98354057 26.72464442 -21.03901462 24.09322254 -22 19 C-22.23579097 13.52239448 -21.74447712 9.31339757 -18.1875 5 C-12.98225549 -0.56653397 -7.31306134 -0.8597358 0 0 Z " fill="#26596B" transform="translate(121,80)"/>
<path d="M0 0 C3.78669252 3.87905087 4.86168357 6.58670666 4.9375 12 C4.81035234 18.36585956 2.67257216 21.32874501 -1.5625 25.9375 C-5.74715092 28.39370815 -9.62386466 28.80579382 -14.4375 28.625 C-20.34390798 26.97895187 -22.96224458 24.42902955 -26.4375 19.625 C-28.51544433 15.46911134 -28.18778694 9.90158494 -26.75390625 5.55078125 C-24.10636615 0.48639957 -20.38463245 -2.2598688 -15.125 -4.25 C-9.58751202 -4.50755758 -4.40111086 -3.4949998 0 0 Z " fill="#22596C" transform="translate(176.4375,199.375)"/>
<path d="M0 0 C4.23333846 1.71134959 6.1204899 3.86507779 8 8 C9.23724236 12.37158968 9.22414779 15.16989658 7.375 19.25 C4.81662898 23.77971856 2.10761834 25.40436873 -2.875 26.8125 C-6.81105177 27.04866311 -9.35415891 26.52462446 -13 25 C-16.95593738 21.38805717 -18.79631745 18.29055981 -19.12890625 13.01953125 C-18.81318112 8.07317094 -16.9628632 4.91589426 -13.4375 1.5625 C-8.83076615 -0.53146993 -4.9821844 -0.68317579 0 0 Z " fill="#2D5B6F" transform="translate(129,42)"/>
<path d="M0 0 C3.84588225 3.84588225 4.85558634 6.73672689 5.125 12.125 C3.66226387 16.66718062 2.1204368 20.39128008 -1.875 23.125 C-6.33433065 24.3805397 -10.39092835 24.62189711 -14.75 22.9375 C-18.91969381 20.51907759 -20.36936257 18.64191229 -21.875 14.125 C-22.27067015 8.88237048 -21.71092201 5.58144888 -18.875 1.125 C-13.38443043 -4.01133927 -6.19452615 -4.03990836 0 0 Z " fill="#24586C" transform="translate(164.875,241.875)"/>
<path d="M0 0 C3.08922167 2.67098858 4.73493381 5.88485929 6.6875 9.4375 C10.46038008 16.19676854 14.65325368 22.59426859 19 29 C27.52979608 41.6990686 35.47236257 54.99292364 39 70 C39.22300781 70.88945312 39.44601563 71.77890625 39.67578125 72.6953125 C45.69886348 101.45860317 37.55158544 129.71035297 21.87109375 153.86328125 C17.71914979 159.99409642 12.95521984 165.51330548 8 171 C6.87401299 172.33249992 5.74888791 173.66572913 4.625 175 C-3.2361294 183.89796901 -11.95843926 193.58348146 -22 200 C-22.99 200 -23.98 200 -25 200 C-24.67 198.02 -24.34 196.04 -24 194 C-23.34 194.66 -22.68 195.32 -22 196 C-21.01 195.67 -20.02 195.34 -19 195 C-19 194.34 -19 193.68 -19 193 C-18.34 193 -17.68 193 -17 193 C-16.67 192.01 -16.34 191.02 -16 190 C-15.34 190 -14.68 190 -14 190 C-13.505 189.01 -13.505 189.01 -13 188 C-11.72035957 186.75692073 -10.40255644 185.55269879 -9.0625 184.375 C-8.35222656 183.74335938 -7.64195313 183.11171875 -6.91015625 182.4609375 C-5 181 -5 181 -3 181 C-3 180.01 -3 179.02 -3 178 C-0.625 175.3125 -0.625 175.3125 2 173 C2.66 173 3.32 173 4 173 C4.28875 172.401875 4.5775 171.80375 4.875 171.1875 C6 169 6 169 8 166 C8.66 166 9.32 166 10 166 C10.66 164.35 11.32 162.7 12 161 C12.66 161 13.32 161 14 161 C14.33 160.01 14.66 159.02 15 158 C15.66 158 16.32 158 17 158 C17.12375 157.4225 17.2475 156.845 17.375 156.25 C18.00648824 153.97664233 18.88858191 152.0746471 20 150 C20.66 150 21.32 150 22 150 C22.25523438 149.16210938 22.51046875 148.32421875 22.7734375 147.4609375 C24.11768918 143.66792162 25.79014193 140.19775209 27.625 136.625 C27.94984375 135.98433594 28.2746875 135.34367188 28.609375 134.68359375 C29.40257407 133.12052499 30.20077031 131.55999378 31 130 C31.66 130 32.32 130 33 130 C32.67 128.68 32.34 127.36 32 126 C32.66 126 33.32 126 34 126 C34.04898438 125.40832031 34.09796875 124.81664062 34.1484375 124.20703125 C34.5720819 119.72954816 35.30578199 116.1790711 37 112 C37.03920815 110.00038436 37.04443347 107.99950636 37 106 C37.33 105.34 37.66 104.68 38 104 C38.27348475 99.86002104 38.23177718 95.71047003 38.25 91.5625 C38.270625 90.42361328 38.29125 89.28472656 38.3125 88.11132812 C38.35715516 78.33743026 36.5080788 69.96496045 32.625 61 C32.20089844 60.01128906 31.77679688 59.02257812 31.33984375 58.00390625 C29.58525152 54.07014117 27.77315002 50.16466203 25.91796875 46.27734375 C25 44 25 44 25 41 C24.01 40.67 23.02 40.34 22 40 C22 39.01 22 38.02 22 37 C21.34 37 20.68 37 20 37 C18 34 18 34 18 30 C17.34 30 16.68 30 16 30 C14.78514615 28.27578573 13.65181296 26.49365116 12.5625 24.6875 C10.29380101 20.84079089 10.29380101 20.84079089 7.44140625 17.4453125 C3.08527538 13.0773764 0.47738989 6.04693865 0 0 Z " fill="#468584" transform="translate(94,130)"/>
<path d="M0 0 C2.64764845 1.67684402 2.95477045 2.85138861 3.875 5.875 C4.02524355 9.63108863 3.28344384 11.06414363 1 14 C-2.7205836 16.48038907 -4.59796571 16.46337203 -9 16 C-12.27522945 13.84524379 -12.90229594 12.3358577 -14 8.5625 C-14 5 -14 5 -12.25 2.125 C-8.24659208 -1.65599637 -5.15597859 -1.10485256 0 0 Z " fill="#325768" transform="translate(153,13)"/>
<path d="M0 0 C2.78251058 2.33371855 2.97502272 3.82828118 3.5 7.4375 C3 11 3 11 0.875 13.9375 C-2 16 -2 16 -5 16.5625 C-8.8425303 15.84202557 -10.45767292 14.99097304 -13 12 C-13.84091359 8.12862424 -13.56444811 5.04826077 -11.6875 1.5625 C-8.04021759 -1.81461334 -4.54561327 -1.05523165 0 0 Z " fill="#255C71" transform="translate(142,283)"/>
<path d="M0 0 C3.56029506 3.56029506 4.47187332 6.2265499 5.125 11.125 C4.465 11.125 3.805 11.125 3.125 11.125 C3.021875 12.07375 2.91875 13.0225 2.8125 14 C2.125 17.125 2.125 17.125 -0.875 19.125 C-0.545 18.135 -0.215 17.145 0.125 16.125 C0.193991 14.06354893 0.20967727 11.99998599 0.1875 9.9375 C0.17847656 8.85082031 0.16945312 7.76414063 0.16015625 6.64453125 C0.14855469 5.81308594 0.13695312 4.98164063 0.125 4.125 C-0.535 4.125 -1.195 4.125 -1.875 4.125 C-1.875 3.465 -1.875 2.805 -1.875 2.125 C-5.58517948 0.88827351 -9.01890459 0.57523539 -12.875 1.125 C-15.56638543 2.56514926 -15.56638543 2.56514926 -16.875 5.125 C-16.73150653 8.32454954 -16.73150653 8.32454954 -15.875 11.125 C-15.545 10.465 -15.215 9.805 -14.875 9.125 C-14.215 9.125 -13.555 9.125 -12.875 9.125 C-12.875 13.125 -12.875 17.125 -12.875 21.125 C-10.895 21.125 -8.915 21.125 -6.875 21.125 C-6.545 22.115 -6.215 23.105 -5.875 24.125 C-11.63917073 23.87383788 -15.77302749 23.5998791 -19.875 19.125 C-22.12871975 15.15416043 -22.27056434 11.63443346 -21.875 7.125 C-20.28291829 2.98558754 -18.75079706 0.35651952 -14.875 -1.875 C-9.87870107 -4.01627097 -4.36616969 -2.84750197 0 0 Z " fill="#315664" transform="translate(164.875,241.875)"/>
<path d="M0 0 C0.66 0 1.32 0 2 0 C2.22624982 3.5824379 2.42787181 7.16585101 2.625 10.75 C2.68945312 11.76578125 2.75390625 12.7815625 2.8203125 13.828125 C2.871875 14.8078125 2.9234375 15.7875 2.9765625 16.796875 C3.02893066 17.69760742 3.08129883 18.59833984 3.13525391 19.52636719 C2.98965654 22.18916947 2.35693395 23.73072479 1 26 C1 24.68 1 23.36 1 22 C-2.36368618 20.87877127 -4.57899483 21.23027384 -8 22 C-9.32 22 -10.64 22 -12 22 C-11.50022688 17.41541456 -10.44328536 14.68224854 -7.6875 11 C-7.0584375 10.14664063 -6.429375 9.29328125 -5.78125 8.4140625 C-5.1934375 7.61742188 -4.605625 6.82078125 -4 6 C-3.22039076 4.79731014 -2.44764741 3.59008411 -1.6875 2.375 C-0.8521875 1.199375 -0.8521875 1.199375 0 0 Z " fill="#409FA1" transform="translate(86,90)"/>
<path d="M0 0 C4.875 2.75 4.875 2.75 6 5 C6.5238576 10.25575165 6.66505372 14.64526095 4.3125 19.4375 C-0.38358115 24.6412656 -3.46699136 26.6755084 -10.50390625 27.09375 C-14.93345552 26.92738195 -18.28085771 25.63876681 -21.50390625 22.56640625 C-24.0999676 19.60053559 -26.12072892 17.03681366 -25.87890625 12.95703125 C-25.5859375 10.97135417 -25.29296875 8.98567708 -25 7 C-24.67 7 -24.34 7 -24 7 C-23.77213542 8.98567708 -23.54427083 10.97135417 -23.31640625 12.95703125 C-23.02829265 15.19396393 -23.02829265 15.19396393 -22 18 C-20.68 17.67 -19.36 17.34 -18 17 C-18 16.34 -18 15.68 -18 15 C-17.01 15.33 -16.02 15.66 -15 16 C-16.98 18.97 -16.98 18.97 -19 22 C-9.86765949 23.63629732 -9.86765949 23.63629732 -1.25 21.4375 C1.79059717 18.14351973 3.05525875 15.55697324 2.95703125 11.01171875 C2.5620489 7.05444276 1.69903194 3.62460147 0 0 Z " fill="#2D4E5C" transform="translate(175,201)"/>
<path d="M0 0 C1.47177418 3.82661288 0.57016757 6.31010622 -1 10 C-1.99860042 11.00139762 -2.99878272 12.00121877 -4 13 C-7.89303033 18.65787074 -10.81335705 24.51772655 -13.140625 30.96875 C-14 33 -14 33 -16 35 C-18.42457396 41.39205861 -20.03428483 47.93561251 -21.55419922 54.59033203 C-22.78432183 59.78432183 -22.78432183 59.78432183 -25 62 C-24.41491579 39.87317908 -11.96974124 17.95461185 0 0 Z " fill="#76B2A2" transform="translate(73,110)"/>
<path d="M0 0 C3 1 3 1 4.16796875 2.77734375 C4.50441406 3.49019531 4.84085938 4.20304688 5.1875 4.9375 C5.70376953 6.00291016 5.70376953 6.00291016 6.23046875 7.08984375 C7 9 7 9 7 11 C7.66 11 8.32 11 9 11 C10.41853215 13.9782818 11.83447122 16.95778972 13.25 19.9375 C13.64574219 20.76830078 14.04148437 21.59910156 14.44921875 22.45507812 C15.64126291 24.96618755 16.82385398 27.48140662 18 30 C18.37801758 30.80864502 18.75603516 31.61729004 19.14550781 32.45043945 C20.93894872 36.37144958 22.49463415 40.03908763 23.25 44.3125 C23.39953125 45.11300781 23.5490625 45.91351563 23.703125 46.73828125 C24 49 24 49 24 53 C23.34 53 22.68 53 22 53 C21.86464844 52.175 21.72929688 51.35 21.58984375 50.5 C18.92010292 36.17612106 13.01190827 24.08664002 5.37670898 11.75854492 C3.01674166 7.92098434 1.23447726 4.37864308 0 0 Z " fill="#6EB19D" transform="translate(57,224)"/>
<path d="M0 0 C3.08922167 2.67098858 4.73493381 5.88485929 6.6875 9.4375 C11.26792443 17.64512249 16.29310278 25.51957472 22 33 C21.67 33.66 21.34 34.32 21 35 C16.25177636 29.91755674 12.30241994 25.11559249 9 19 C8.52433594 18.53980469 8.04867187 18.07960937 7.55859375 17.60546875 C3.18143619 13.09666736 0.48864505 6.18950394 0 0 Z " fill="#4C8486" transform="translate(94,130)"/>
<path d="M0 0 C0.33 0 0.66 0 1 0 C1.54036223 13.7492167 0.65386343 29.21220417 -5 42 C-5.99 42.495 -5.99 42.495 -7 43 C-7 43.99 -7 44.98 -7 46 C-7.66 46 -8.32 46 -9 46 C-8.46322577 42.98810016 -7.75701809 40.06654293 -6.9140625 37.12890625 C-3.42653014 24.86087073 -1.44496091 12.66275205 0 0 Z " fill="#73B09E" transform="translate(80,278)"/>
<path d="M0 0 C3.54654162 3.46004061 4.43030595 6.5922959 4.5625 11.5 C4.09333757 14.60820113 3.40354442 15.76632798 1.5625 18.5 C-2.125 19.9375 -2.125 19.9375 -5.4375 20.5 C-4.2309375 19.2625 -4.2309375 19.2625 -3 18 C0.58147159 13.71846739 0.72742095 9.63349798 0.4375 4.125 C-0.36121564 2.32840322 -0.36121564 2.32840322 -2.375 1.25 C-6.73849708 0.18138847 -10.96817741 0.34379067 -15.4375 0.5 C-15.4375 -0.16 -15.4375 -0.82 -15.4375 -1.5 C-10.0624371 -3.29168763 -5.11614658 -2.23250033 0 0 Z " fill="#35505F" transform="translate(133.4375,45.5)"/>
<path d="M0 0 C0.66 0 1.32 0 2 0 C1.98952637 0.56920166 1.97905273 1.13840332 1.96826172 1.72485352 C1.92634282 4.3373563 1.90056112 6.94978799 1.875 9.5625 C1.85824219 10.45775391 1.84148438 11.35300781 1.82421875 12.27539062 C1.78535166 17.5807489 2.30898738 21.91443612 4 27 C4.52534332 29.55010402 4.9852888 32.10409277 5.4375 34.66796875 C5.91284208 37.02602212 5.91284208 37.02602212 7.0625 39.11328125 C8 41 8 41 8 44 C7.34 44 6.68 44 6 44 C5.36559072 42.52484445 4.74309173 41.04456668 4.125 39.5625 C3.77695312 38.73878906 3.42890625 37.91507813 3.0703125 37.06640625 C0.12710879 28.63423504 -0.25854167 20.83856572 -0.125 11.9375 C-0.11597656 10.78572266 -0.10695312 9.63394531 -0.09765625 8.44726562 C-0.07428714 5.63128807 -0.04152565 2.81575842 0 0 Z " fill="#72AB9B" transform="translate(47,174)"/>
<path d="M0 0 C0.33 1.32 0.66 2.64 1 4 C-3.76572763 7.78814248 -7.85419687 9.27693394 -14 9 C-16.82816475 8.35747467 -18.45391344 7.53826063 -21 6 C-21.9375 3.8125 -21.9375 3.8125 -22 2 C-21.319375 2.28875 -20.63875 2.5775 -19.9375 2.875 C-12.02905136 5.95200363 -12.02905136 5.95200363 -4 4 C-4 3.34 -4 2.68 -4 2 C-2.68 1.34 -1.36 0.68 0 0 Z " fill="#344A61" transform="translate(127,104)"/>
<path d="M0 0 C4.875 2.75 4.875 2.75 6 5 C6.23333333 11.53333333 6.23333333 11.53333333 5 14 C2.3147536 15.37891032 0.70223141 16.11387536 -2.3125 15.625 C-2.869375 15.41875 -3.42625 15.2125 -4 15 C-3.01 14.67 -2.02 14.34 -1 14 C0.01754868 12.1346755 0.01754868 12.1346755 0.6875 9.9375 C0.93886719 9.20402344 1.19023437 8.47054688 1.44921875 7.71484375 C1.63097656 7.14894531 1.81273437 6.58304687 2 6 C1.34 5.67 0.68 5.34 0 5 C-0.66 4.01 -1.32 3.02 -2 2 C-1.34 1.34 -0.68 0.68 0 0 Z " fill="#2D505C" transform="translate(139,282)"/>
<path d="M0 0 C0.66 0 1.32 0 2 0 C2.22624982 3.5824379 2.42787181 7.16585101 2.625 10.75 C2.68945312 11.76578125 2.75390625 12.7815625 2.8203125 13.828125 C2.89765625 15.29765625 2.89765625 15.29765625 2.9765625 16.796875 C3.02893066 17.69760742 3.08129883 18.59833984 3.13525391 19.52636719 C2.98965654 22.18916947 2.35693395 23.73072479 1 26 C-0.04882391 22.43928688 -0.30386953 18.94472103 -0.5625 15.25 C-0.64628906 14.07953125 -0.73007813 12.9090625 -0.81640625 11.703125 C-0.87699219 10.81109375 -0.93757813 9.9190625 -1 9 C-1.99 9 -2.98 9 -4 9 C-3.4739075 5.21213403 -2.61896089 2.82847776 0 0 Z " fill="#467E81" transform="translate(86,90)"/>
<path d="M0 0 C4.875 2.75 4.875 2.75 6 5 C6.52383318 10.25550671 6.61997842 14.66466186 4.375 19.5 C1.73954286 22.27416541 -0.40611758 23.70008508 -4 25 C-4.99 24.67 -5.98 24.34 -7 24 C-6.16855469 23.56300781 -6.16855469 23.56300781 -5.3203125 23.1171875 C-1.79322772 21.1214349 0.56309806 19.78642349 2.5625 16.1875 C3.35936659 10.3817577 2.49406788 5.32067814 0 0 Z " fill="#224150" transform="translate(175,201)"/>
<path d="M0 0 C0.99 0 1.98 0 3 0 C3.48539869 1.83169318 3.96297186 3.66546059 4.4375 5.5 C4.83775391 7.03140625 4.83775391 7.03140625 5.24609375 8.59375 C6.907093 16.09836837 7.04496217 22.86933391 6.5625 30.5 C6.51029297 31.4178125 6.45808594 32.335625 6.40429688 33.28125 C6.2759611 35.52129261 6.14107403 37.76072975 6 40 C5.67 40 5.34 40 5 40 C4.98541748 39.30028076 4.97083496 38.60056152 4.95581055 37.87963867 C4.88043067 34.64842557 4.78407319 31.41814648 4.6875 28.1875 C4.66494141 27.08728516 4.64238281 25.98707031 4.61914062 24.85351562 C4.37990677 17.4807633 3.1973776 11.02587412 1 4 C0.65690338 2.66914554 0.31993078 1.33661258 0 0 Z " fill="#45817F" transform="translate(128,193)"/>
<path d="M0 0 C2.18380083 1.09190042 3.42698959 2.1409877 5 4 C5 4.99 5 5.98 5 7 C11.93 7.495 11.93 7.495 19 8 C19 8.99 19 9.98 19 11 C12.03484039 11.44616681 7.39032017 11.69925348 2 7 C0 5 0 5 -0.125 2.375 C-0.08375 1.59125 -0.0425 0.8075 0 0 Z " fill="#2A4C59" transform="translate(115,142)"/>
<path d="M0 0 C0.66 0.66 1.32 1.32 2 2 C1.70930697 6.36039551 0.68805486 9.54392947 -2 13 C-4.6875 14.3125 -4.6875 14.3125 -7 15 C-6.68383092 8.83470299 -3.50784939 4.82731567 0 0 Z " fill="#419798" transform="translate(81,97)"/>
<path d="M0 0 C2.625 0.375 2.625 0.375 5 1 C4.75 4.375 4.75 4.375 4 8 C2 9.25 2 9.25 0 10 C-0.33 10.99 -0.66 11.98 -1 13 C-2.66561399 11.33438601 -2.17115945 9.34037295 -2.1875 7.0625 C-2.20167969 6.16660156 -2.21585937 5.27070312 -2.23046875 4.34765625 C-2 2 -2 2 0 0 Z " fill="#204F61" transform="translate(114,48)"/>
<path d="M0 0 C0.76441406 0.06703125 1.52882812 0.1340625 2.31640625 0.203125 C4.4375 0.75 4.4375 0.75 7.4375 3.75 C-0.4825 4.245 -0.4825 4.245 -8.5625 4.75 C-7.5725 4.09 -6.5825 3.43 -5.5625 2.75 C-7.2125 2.75 -8.8625 2.75 -10.5625 2.75 C-7.36523106 -0.44726894 -4.36254185 -0.44289765 0 0 Z " fill="#416373" transform="translate(153.5625,154.25)"/>
<path d="M0 0 C1.32 0 2.64 0 4 0 C4 0.66 4 1.32 4 2 C1.91796875 3.9453125 1.91796875 3.9453125 -0.8125 6.125 C-2.15248047 7.21167969 -2.15248047 7.21167969 -3.51953125 8.3203125 C-6 10 -6 10 -9 10 C-8.67 8.02 -8.34 6.04 -8 4 C-7.34 4.66 -6.68 5.32 -6 6 C-5.01 5.67 -4.02 5.34 -3 5 C-3 4.34 -3 3.68 -3 3 C-2.34 3 -1.68 3 -1 3 C-0.67 2.01 -0.34 1.02 0 0 Z " fill="#518D7C" transform="translate(78,320)"/>
<path d="M0 0 C2 2 2 2 2 5 C2.66 5 3.32 5 4 5 C4 7 4 7 2.625 8.625 C1 10 1 10 -1 10 C-1 10.66 -1 11.32 -1 12 C-1.66 12 -2.32 12 -3 12 C-3.33 12.66 -3.66 13.32 -4 14 C-4.33 13.01 -4.66 12.02 -5 11 C-4.34 11 -3.68 11 -3 11 C-2.87625 10.113125 -2.7525 9.22625 -2.625 8.3125 C-2.05587264 5.29612498 -1.23385564 2.79673946 0 0 Z " fill="#74CCB3" transform="translate(76,313)"/>
<path d="M0 0 C2.4375 1.125 2.4375 1.125 5 3 C5.8125 6.1875 5.8125 6.1875 6 9 C5.34 9 4.68 9 4 9 C3.896875 9.94875 3.79375 10.8975 3.6875 11.875 C3 15 3 15 0 17 C0.495 15.515 0.495 15.515 1 14 C1.09329934 12.35628509 1.12995144 10.70885323 1.125 9.0625 C1.12886719 7.78052734 1.12886719 7.78052734 1.1328125 6.47265625 C1.00930254 4.17319148 0.64420687 2.20359652 0 0 Z " fill="#254352" transform="translate(164,244)"/>
<path d="M0 0 C0.66 0.66 1.32 1.32 2 2 C1.15179688 1.82597656 0.30359375 1.65195313 -0.5703125 1.47265625 C-4.15860955 0.97814151 -7.27389883 1.10678663 -10.875 1.4375 C-12.02742187 1.53933594 -13.17984375 1.64117187 -14.3671875 1.74609375 C-15.67042969 1.87177734 -15.67042969 1.87177734 -17 2 C-11.99988608 -3.30012075 -6.49426431 -2.1817666 0 0 Z " fill="#395360" transform="translate(173,197)"/>
<path d="M0 0 C0.99 0.495 0.99 0.495 2 1 C2 1.66 2 2.32 2 3 C2.66 3 3.32 3 4 3 C4.02712066 4.43739513 4.04645067 5.87493863 4.0625 7.3125 C4.07410156 8.11300781 4.08570313 8.91351563 4.09765625 9.73828125 C4 12 4 12 3 15 C2.01 14.67 1.02 14.34 0 14 C0.08378906 13.40832031 0.16757813 12.81664063 0.25390625 12.20703125 C0.80889424 7.90060543 1.23226652 4.24447356 0 0 Z " fill="#324C5B" transform="translate(128,89)"/>
<path d="M0 0 C0.66 0.33 1.32 0.66 2 1 C0.25 4.875 0.25 4.875 -2 6 C-2 9.63 -2 13.26 -2 17 C-2.99 17 -3.98 17 -5 17 C-5.54335626 10.34388587 -4.80091227 6.52859966 -1 1 C-0.67 0.67 -0.34 0.34 0 0 Z " fill="#3F5A66" transform="translate(154,199)"/>
<path d="M0 0 C4.18868077 1.7423504 5.37633263 3.76163132 7.25 7.7578125 C8.43179809 11.29089639 8.26412935 14.30218911 8 18 C7.67 18 7.34 18 7 18 C6.855625 16.906875 6.71125 15.81375 6.5625 14.6875 C6.11711896 11.06877013 6.11711896 11.06877013 5 8 C4.01 8.33 3.02 8.66 2 9 C1.855625 7.88625 1.71125 6.7725 1.5625 5.625 C1.21627965 2.17857953 1.21627965 2.17857953 0 0 Z " fill="#435B6B" transform="translate(161,158)"/>
<path d="M0 0 C0.33 0 0.66 0 1 0 C1 3.3 1 6.6 1 10 C1.66 10 2.32 10 3 10 C2.67 8.35 2.34 6.7 2 5 C2.99 5.33 3.98 5.66 5 6 C5.26218749 9.14624993 5.24754367 10.61837017 3.5 13.3125 C2.7575 14.1478125 2.7575 14.1478125 2 15 C-0.02558881 11.65060119 -0.21738987 9.13037449 -0.125 5.25 C-0.09792969 3.77273437 -0.09792969 3.77273437 -0.0703125 2.265625 C-0.04710938 1.51796875 -0.02390625 0.7703125 0 0 Z " fill="#375B6D" transform="translate(112,130)"/>
<path d="M0 0 C0.66 0.33 1.32 0.66 2 1 C1.34 1.66 0.68 2.32 0 3 C-0.93104132 5.9482975 -1.23729128 7.41468152 -0.0625 10.3125 C0.288125 10.869375 0.63875 11.42625 1 12 C-0.65 11.67 -2.3 11.34 -4 11 C-4.35233161 5.62694301 -4.35233161 5.62694301 -4 3 C-2 1 -2 1 0 0 Z " fill="#284A57" transform="translate(133,284)"/>
<path d="M0 0 C1.485 0.99 1.485 0.99 3 2 C3 2.66 3 3.32 3 4 C6.50538557 5.96301592 10.13351728 6.95902388 14 8 C14 8.33 14 8.66 14 9 C6.8444694 9.48512072 6.8444694 9.48512072 3.0625 7.3125 C0.81096104 4.78804723 0.27746492 3.32957907 0 0 Z " fill="#214454" transform="translate(137,179)"/>
<path d="M0 0 C0.66 0 1.32 0 2 0 C2 6.27 2 12.54 2 19 C1.67 19 1.34 19 1 19 C0.67 14.38 0.34 9.76 0 5 C-1.98 5.99 -1.98 5.99 -4 7 C-2.68 4.69 -1.36 2.38 0 0 Z " fill="#628B8E" transform="translate(86,90)"/>
<path d="M0 0 C0.66 0.33 1.32 0.66 2 1 C1.2884375 1.99 1.2884375 1.99 0.5625 3 C-1.63701943 7.22307731 -2 11.22473561 -2 16 C-2.66 16 -3.32 16 -4 16 C-4.1080023 13.89695523 -4.18558987 11.79233091 -4.25 9.6875 C-4.31960937 7.92986328 -4.31960937 7.92986328 -4.390625 6.13671875 C-4 3 -4 3 -1.984375 1.08203125 C-1.32953125 0.72496094 -0.6746875 0.36789063 0 0 Z " fill="#284657" transform="translate(117,124)"/>
<path d="M0 0 C1.90389849 2.85584773 2.69462177 4.9311762 3.625 8.1875 C4.01558594 9.53908203 4.01558594 9.53908203 4.4140625 10.91796875 C4.60742188 11.60503906 4.80078125 12.29210937 5 13 C4.34 13.66 3.68 14.32 3 15 C0.31780178 9.63560356 -0.3152595 5.98993047 0 0 Z " fill="#4D8486" transform="translate(89,116)"/>
<path d="M0 0 C1.65 0 3.3 0 5 0 C4.6875 1.9375 4.6875 1.9375 4 4 C3.01 4.33 2.02 4.66 1 5 C1 5.99 1 6.98 1 8 C0.01 8.33 -0.98 8.66 -2 9 C-2 5 -2 5 0 2 C0 1.34 0 0.68 0 0 Z " fill="#3C9D9B" transform="translate(90,303)"/>
<path d="M0 0 C3 3 3 3 3.2487793 5.26831055 C3.16237183 6.56442261 3.16237183 6.56442261 3.07421875 7.88671875 C3.01943359 8.82451172 2.96464844 9.76230469 2.90820312 10.72851562 C2.83537109 11.70498047 2.76253906 12.68144531 2.6875 13.6875 C2.62626953 14.67556641 2.56503906 15.66363281 2.50195312 16.68164062 C2.34867116 19.12236119 2.18082846 21.56119089 2 24 C1.67 24 1.34 24 1 24 C0.67 16.08 0.34 8.16 0 0 Z " fill="#37797A" transform="translate(132,209)"/>
<path d="M0 0 C0.66 0.99 1.32 1.98 2 3 C0.88625 3.474375 -0.2275 3.94875 -1.375 4.4375 C-3.26710994 5.25306463 -5.15712709 6.07856355 -7 7 C-7.66 6.34 -8.32 5.68 -9 5 C-3.85714286 0.57142857 -3.85714286 0.57142857 0 0 Z " fill="#2C4750" transform="translate(154,239)"/>
<path d="M0 0 C0.33 0 0.66 0 1 0 C1.05395478 1.62463842 1.09277195 3.24978541 1.125 4.875 C1.14820313 5.77992187 1.17140625 6.68484375 1.1953125 7.6171875 C1 10 1 10 -1 12 C-2.98356483 12.71408334 -4.98315437 13.38617742 -7 14 C-6.21625 13.175 -5.4325 12.35 -4.625 11.5 C-1.58836 7.90420533 -0.86809043 4.57720406 0 0 Z " fill="#214050" transform="translate(135,52)"/>
<path d="M0 0 C0.66 0 1.32 0 2 0 C2.33 3.63 2.66 7.26 3 11 C2.34 10.67 1.68 10.34 1 10 C1 9.34 1 8.68 1 8 C0.34 8 -0.32 8 -1 8 C-1.04241723 5.66705225 -1.04092937 3.33297433 -1 1 C-0.67 0.67 -0.34 0.34 0 0 Z " fill="#2A4A57" transform="translate(144,248)"/>
<path d="M0 0 C0.66 0 1.32 0 2 0 C3.65 3.63 5.3 7.26 7 11 C6.01 11 5.02 11 4 11 C0 4.5 0 4.5 0 0 Z " fill="#78B6A4" transform="translate(64,235)"/>
<path d="M0 0 C0 0.99 0 1.98 0 3 C-1.4609375 4.38671875 -1.4609375 4.38671875 -3.375 5.6875 C-4.00148437 6.12449219 -4.62796875 6.56148437 -5.2734375 7.01171875 C-7 8 -7 8 -9 8 C-9 6.68 -9 5.36 -9 4 C-8.43410156 3.79503906 -7.86820313 3.59007812 -7.28515625 3.37890625 C-6.55167969 3.10949219 -5.81820312 2.84007812 -5.0625 2.5625 C-4.33160156 2.29566406 -3.60070312 2.02882812 -2.84765625 1.75390625 C-1.01694322 1.14613052 -1.01694322 1.14613052 0 0 Z " fill="#3E5772" transform="translate(143,145)"/>
<path d="M0 0 C2.64 0 5.28 0 8 0 C8.33 0.66 8.66 1.32 9 2 C9.99 2.33 10.98 2.66 12 3 C12 3.66 12 4.32 12 5 C6.06 3.515 6.06 3.515 0 2 C0 1.34 0 0.68 0 0 Z " fill="#294F63" transform="translate(111,81)"/>
<path d="M0 0 C0.66 0.99 1.32 1.98 2 3 C0.71034824 4.37562854 -0.62689293 5.70766393 -2 7 C-2.66 7 -3.32 7 -4 7 C-4.33 7.66 -4.66 8.32 -5 9 C-5 5.84012675 -4.61785127 4.63965207 -3 2 C-2.01 1.34 -1.02 0.68 0 0 Z " fill="#44A498" transform="translate(86,310)"/>
<path d="M0 0 C2.5 1.0625 2.5 1.0625 5 3 C5.3125 6.6875 5.3125 6.6875 5 10 C4.34 9.01 3.68 8.02 3 7 C2.0206121 5.97980427 1.02104551 4.97850195 0 4 C-0.66 3.34 -1.32 2.68 -2 2 C-1.34 1.34 -0.68 0.68 0 0 Z " fill="#2B4551" transform="translate(139,282)"/>
<path d="M0 0 C1.08892712 2.83121051 0.96109941 4.16532751 0.25 7.1875 C-0.36875 8.5796875 -0.36875 8.5796875 -1 10 C-1.99 10.33 -2.98 10.66 -4 11 C-4.56638908 6.18569279 -2.82561627 3.79692186 0 0 Z " fill="#6DB0A8" transform="translate(73,110)"/>
<path d="M0 0 C0.99 0 1.98 0 3 0 C3.66 0.33 4.32 0.66 5 1 C1.53076119 3.31282587 0.07794425 3.42478586 -4 3 C-5.875 1.5 -5.875 1.5 -7 0 C-3.78043217 -1.07318928 -3.09578311 -0.870689 0 0 Z " fill="#455D66" transform="translate(138,296)"/>
<path d="M0 0 C2.0625 0.4375 2.0625 0.4375 4 1 C-2.02341941 3.68902652 -5.525862 4.27170568 -12 3 C-12 2.67 -12 2.34 -12 2 C-11.21753906 1.93941406 -10.43507812 1.87882813 -9.62890625 1.81640625 C-8.61699219 1.73261719 -7.60507813 1.64882812 -6.5625 1.5625 C-5.55316406 1.48128906 -4.54382813 1.40007812 -3.50390625 1.31640625 C-1.06359221 1.26788532 -1.06359221 1.26788532 0 0 Z " fill="#405766" transform="translate(157,186)"/>
<path d="M0 0 C2.5 2.25 2.5 2.25 5 5 C5 6.32 5 7.64 5 9 C4.34 9 3.68 9 3 9 C0.56839395 5.63316085 0 4.26649636 0 0 Z " fill="#405861" transform="translate(100,99)"/>
<path d="M0 0 C0.56203125 0.16371094 1.1240625 0.32742187 1.703125 0.49609375 C4.13059056 1.02864997 6.26889681 1.09898681 8.75 1.0625 C9.94882813 1.04896484 9.94882813 1.04896484 11.171875 1.03515625 C12.07679687 1.01775391 12.07679687 1.01775391 13 1 C13 1.33 13 1.66 13 2 C10.94921875 2.22786458 8.8984375 2.45572917 6.84765625 2.68359375 C4.98859771 2.81886614 4.98859771 2.81886614 4 4 C2.33382885 4.04063832 0.66611905 4.042721 -1 4 C-0.67 2.68 -0.34 1.36 0 0 Z " fill="#305470" transform="translate(115,44)"/>
<path d="M0 0 C1 3 1 3 1 5 C0.01 5.495 0.01 5.495 -1 6 C-1.68472665 7.88764903 -1.68472665 7.88764903 -2.125 10.0625 C-2.29257813 10.79597656 -2.46015625 11.52945313 -2.6328125 12.28515625 C-2.75398438 12.85105469 -2.87515625 13.41695312 -3 14 C-3.33 14 -3.66 14 -4 14 C-3.91231752 12.4156683 -3.80412671 10.83246433 -3.6875 9.25 C-3.60048828 7.92742187 -3.60048828 7.92742187 -3.51171875 6.578125 C-2.9358819 3.67696226 -1.92403852 2.20774393 0 0 Z " fill="#4B6F78" transform="translate(103,85)"/>
<path d="M0 0 C1.32 1.32 2.64 2.64 4 4 C3.67 4.99 3.34 5.98 3 7 C2.34 7 1.68 7 1 7 C1.33 8.32 1.66 9.64 2 11 C1.34 10.67 0.68 10.34 0 10 C0 6.7 0 3.4 0 0 Z " fill="#2E5466" transform="translate(136,172)"/>
<path d="M0 0 C2.0625 0.4375 2.0625 0.4375 4 1 C4 3.64 4 6.28 4 9 C3.67 9 3.34 9 3 9 C3 6.69 3 4.38 3 2 C2.54625 2.495 2.0925 2.99 1.625 3.5 C0 5 0 5 -2 5 C-1.125 1.125 -1.125 1.125 0 0 Z " fill="#1D546A" transform="translate(134,285)"/>
<path d="M0 0 C0.66 0.33 1.32 0.66 2 1 C1.67 1.66 1.34 2.32 1 3 C0.34 3 -0.32 3 -1 3 C-1 3.66 -1 4.32 -1 5 C-0.01 5.33 0.98 5.66 2 6 C2 6.66 2 7.32 2 8 C0.68 7.67 -0.64 7.34 -2 7 C-2.6875 5.1875 -2.6875 5.1875 -3 3 C-1.5625 1.25 -1.5625 1.25 0 0 Z " fill="#1C495E" transform="translate(156,199)"/>
<path d="M0 0 C0 0.66 0 1.32 0 2 C0.99 2.33 1.98 2.66 3 3 C-1.29 3 -5.58 3 -10 3 C-6.84916414 -0.15083586 -4.41812253 0 0 0 Z " fill="#405965" transform="translate(153,154)"/>
<path d="M0 0 C0.33 0 0.66 0 1 0 C1.08153933 1.58246707 1.13943557 3.16616273 1.1875 4.75 C1.23970703 6.07257813 1.23970703 6.07257813 1.29296875 7.421875 C0.94923684 10.44671583 -0.00227459 11.75583602 -2 14 C-2 12.02 -2 10.04 -2 8 C-1.34 8 -0.68 8 0 8 C0 5.36 0 2.72 0 0 Z " fill="#495D79" transform="translate(146,131)"/>
<path d="M0 0 C0.66 0.66 1.32 1.32 2 2 C2.66 1.67 3.32 1.34 4 1 C4 2.32 4 3.64 4 5 C2.35 5.33 0.7 5.66 -1 6 C-0.67 4.02 -0.34 2.04 0 0 Z " fill="#769D92" transform="translate(70,324)"/>
<path d="M0 0 C0.93065133 2.60582371 1.14917407 3.64198224 0.0625 6.25 C-0.4634375 7.11625 -0.4634375 7.11625 -1 8 C-1.99 7.34 -2.98 6.68 -4 6 C-2.68 4.02 -1.36 2.04 0 0 Z " fill="#4B898B" transform="translate(80,99)"/>
<path d="M0 0 C1.231394 3.69418201 0.64432764 6.2056261 0 10 C-0.66 9.67 -1.32 9.34 -2 9 C-1.125 1.125 -1.125 1.125 0 0 Z " fill="#224852" transform="translate(102,90)"/>
<path d="M0 0 C1.65 0 3.3 0 5 0 C5.33 0.99 5.66 1.98 6 3 C1.545 3.495 1.545 3.495 -3 4 C-2.67 3.34 -2.34 2.68 -2 2 C-1.34 2 -0.68 2 0 2 C0 1.34 0 0.68 0 0 Z " fill="#213E4A" transform="translate(146,12)"/>
<path d="M0 0 C-2.93720508 1.52299523 -5.9168649 2.80100302 -9 4 C-8.1875 2.0625 -8.1875 2.0625 -7 0 C-3.86650268 -1.04449911 -3.01031744 -0.93423645 0 0 Z " fill="#405862" transform="translate(139,283)"/>
<path d="M0 0 C0 3.51716303 -0.82445585 4.37121748 -3 7 C-3.66 6.67 -4.32 6.34 -5 6 C-5 5.01 -5 4.02 -5 3 C-2.5 1.3125 -2.5 1.3125 0 0 Z " fill="#435C69" transform="translate(166,179)"/>
<path d="M0 0 C-1.0975223 2.99324263 -1.67682892 3.84610901 -4.625 5.25 C-5.40875 5.4975 -6.1925 5.745 -7 6 C-5.52522876 2.59668175 -4.14385429 0 0 0 Z " fill="#495C7A" transform="translate(122,120)"/>
</svg>
